<svg width="112" height="35" viewBox="0 0 112 35" fill="none" xmlns="http://www.w3.org/2000/svg">
<path d="M6.84375 34H0.117188V0.390625H6.84375V34ZM42.1444 34H34.9491L21.9881 11.875V34H15.2616V0.390625H22.4569L35.4178 22.5391V0.390625H42.1444V34ZM77.3044 30.6016C75.7419 31.9297 73.9997 32.9531 72.0778 33.6719C70.1559 34.375 68.1559 34.7266 66.0778 34.7266C64.4841 34.7266 62.945 34.5156 61.4606 34.0938C59.9919 33.6875 58.6169 33.1094 57.3356 32.3594C56.0544 31.5938 54.8825 30.6875 53.82 29.6406C52.7575 28.5781 51.8512 27.4062 51.1012 26.125C50.3512 24.8281 49.7653 23.4375 49.3434 21.9531C48.9372 20.4688 48.7341 18.9297 48.7341 17.3359C48.7341 15.7422 48.9372 14.2109 49.3434 12.7422C49.7653 11.2734 50.3512 9.89844 51.1012 8.61719C51.8512 7.32031 52.7575 6.14844 53.82 5.10156C54.8825 4.03906 56.0544 3.13281 57.3356 2.38281C58.6169 1.63281 59.9919 1.05469 61.4606 0.648438C62.945 0.226562 64.4841 0.015625 66.0778 0.015625C68.1559 0.015625 70.1559 0.375 72.0778 1.09375C73.9997 1.79688 75.7419 2.8125 77.3044 4.14062L73.7887 10C72.7731 8.96875 71.6012 8.16406 70.2731 7.58594C68.945 6.99219 67.5466 6.69531 66.0778 6.69531C64.6091 6.69531 63.2262 6.97656 61.9294 7.53906C60.6481 8.10156 59.5231 8.86719 58.5544 9.83594C57.5856 10.7891 56.82 11.9141 56.2575 13.2109C55.695 14.4922 55.4137 15.8672 55.4137 17.3359C55.4137 18.8203 55.695 20.2109 56.2575 21.5078C56.82 22.8047 57.5856 23.9375 58.5544 24.9062C59.5231 25.875 60.6481 26.6406 61.9294 27.2031C63.2262 27.7656 64.6091 28.0469 66.0778 28.0469C66.9216 28.0469 67.7419 27.9453 68.5387 27.7422C69.3356 27.5391 70.0934 27.2578 70.8122 26.8984V17.3359H77.3044V30.6016ZM111.527 34H104.332L91.3706 11.875V34H84.6441V0.390625H91.8394L104.8 22.5391V0.390625H111.527V34Z" fill="#C52525"/>
</svg>
